#!OML:ASF F:\VICON\USERDATA\INSTALL\Justin_Nancy\Justin_Nancy.ASF
:FULLY-SPECIFIED
:DEGREES
175
root 12.3482 17.0035 2.27985 201.62 83.355 196.701
lowerback 12.5685 2.20484 -3.90368
upperback -0.238992 2.51235 1.74258
thorax -7.57263 1.4202 3.5814
lowerneck -20.1046 -5.95223 -9.05386
upperneck 12.2578 -6.84353 7.58851
head 7.6347 -2.98536 3.11877
rclavicle 2.07481e-014 4.96962e-016
rhumerus -33.0203 -1.34272 -69.1924
rradius 124.162
rwrist -20.1606
rhand -14.5391 28.9656
rfingers 7.12502
rthumb 11.6093 -0.692816
lclavicle 2.07481e-014 4.96962e-016
lhumerus -52.5291 -6.73395 89.4952
lradius 93.5103
lwrist 18.9605
lhand -17.272 7.37799
lfingers 7.12502
lthumb 8.97291 37.1672
rfemur -12.9984 -1.93281 28.242
rtibia 43.0882
rfoot -21.6667 -4.99975
rtoes -1.3549
lfemur -31.4798 -3.33269 -16.3336
ltibia 83.0542
lfoot 3.67001 -7.46395
ltoes -8.71165
176
root 12.6696 17.074 2.28057 198.634 83.7188 193.78
lowerback 12.2308 2.15772 -3.72845
upperback -0.185827 2.44229 1.17788
thorax -7.28263 1.36 2.90296
lowerneck -20.2156 -5.73525 -9.00763
upperneck 12.0765 -6.62668 8.08638
head 7.59317 -2.82869 3.30696
rclavicle 1.67794e-014 1.65628e-014
rhumerus -32.3103 -0.576248 -70.8948
rradius 124.408
rwrist -20.5528
rhand -14.1854 29.1257
rfingers 7.12502
rthumb 11.9503 -0.513213
lclavicle 1.67794e-014 1.65628e-014
lhumerus -53.4616 -6.32288 88.8047
lradius 94.2994
lwrist 20.3261
lhand -16.4478 7.9779
lfingers 7.12502
lthumb 9.76809 37.7314
rfemur -11.3755 -1.64436 27.771
rtibia 42.3448
rfoot -20.5414 -4.63243
rtoes -2.9495
lfemur -32.6729 -3.15309 -16.9825
ltibia 81.7549
lfoot 2.73885 -7.14202
ltoes -6.96617
177
root 13.0017 17.1564 2.2857 203.38 83.7453 198.6
lowerback 11.8705 2.17513 -2.56802
upperback -0.201514 2.61223 0.805273
thorax -7.03557 1.3899 1.83203
lowerneck -20.2855 -5.79517 -9.34685
upperneck 12.0738 -6.72993 8.79442
head 7.6545 -2.8231 3.58574
rclavicle 2.45499e-014 7.15625e-015
rhumerus -31.9589 -0.155339 -72.4996
rradius 124.629
rwrist -20.4968
rhand -14.1844 29.1022
rfingers 7.12502
rthumb 11.9513 -0.536598
lclavicle 2.45499e-014 7.15625e-015
lhumerus -54.4293 -6.32857 88.2241
lradius 94.9577
lwrist 21.3501
lhand -16.521 7.8922
lfingers 7.12502
lthumb 9.6975 37.649
rfemur -9.6883 -1.5226 28.2598
rtibia 41.4018
rfoot -19.3688 -4.15011
rtoes -5.02644
lfemur -33.7804 -3.12037 -16.5398
ltibia 80.2526
lfoot 1.97069 -7.10947
ltoes -1.06075
178
root 13.3321 17.2193 2.29175 206.389 83.6269 201.654
lowerback 11.5079 2.19197 -1.58967
upperback -0.253445 2.74813 0.428195
thorax -6.82574 1.41341 0.871593
lowerneck -20.1811 -5.91304 -9.33615
upperneck 11.9961 -6.96609 9.19036
head 7.6511 -2.89841 3.68651
rclavicle 2.05742e-014 1.98785e-016
rhumerus -31.892 0.37982 -73.9766
rradius 124.923
rwrist -20.3917
rhand -14.4383 28.8523
rfingers 7.12502
rthumb 11.7064 -0.80066
lclavicle 2.05742e-014 1.98785e-016
lhumerus -55.36 -6.27145 87.8557
lradius 95.2527
lwrist 21.1004
lhand -17.5294 7.49465
lfingers 7.12502
lthumb 8.72447 37.2943
rfemur -8.08935 -1.57392 28.5832
rtibia 40.5078
rfoot -18.0643 -3.43276
rtoes -7.0462
lfemur -34.6573 -2.61718 -16.6682
ltibia 78.3286
lfoot 0.39602 -7.21129
ltoes -3.84533
179
root 13.6768 17.3108 2.29625 207.129 83.5229 202.474
lowerback 11.2114 2.27441 -0.928891
upperback -0.385113 2.91513 -0.0506102
thorax -6.74338 1.46317 -0.0225029
lowerneck -19.9736 -5.90834 -8.68813
upperneck 11.9966 -7.15469 9.18534
head 7.61199 -2.96066 3.55714
rclavicle 5.56597e-014 -1.59028e-015
rhumerus -32.2705 0.983384 -75.3784
rradius 125.151
rwrist -20.1681
rhand -14.5608 28.8455
rfingers 7.12502
rthumb 11.5884 -0.814147
lclavicle 5.56597e-014 -1.59028e-015
lhumerus -56.452 -6.44761 87.4178
lradius 95.4888
lwrist 20.2075
lhand -18.1211 7.14127
lfingers 7.12502
lthumb 8.15349 36.964
rfemur -6.42393 -1.9515 28.5968
rtibia 39.4975
rfoot -15.9096 -2.20225
rtoes -4.45855
lfemur -35.397 -2.74216 -16.6865
ltibia 76.099
lfoot 0.0261197 -6.79745
ltoes -2.40901
180
root 14.0295 17.406 2.29886 205.056 83.698 200.4
lowerback 10.6772 2.66691 -1.52352
upperback -0.487392 3.37151 0.0445741
thorax -6.59586 1.70878 0.355251
lowerneck -19.8302 -6.13029 -9.14941
upperneck 12.2046 -7.36317 9.20597
head 7.6941 -3.08363 3.6123
rclavicle -4.11484e-014 2.5842e-015
rhumerus -32.6498 1.81431 -75.425
rradius 125.276
rwrist -20.1138
rhand -14.5673 28.8582
rfingers 7.12502
rthumb 11.582 -0.801746
lclavicle -4.11484e-014 2.5842e-015
lhumerus -57.4708 -6.26374 87.8473
lradius 95.9706
lwrist 20.2933
lhand -16.2128 7.68696
lfingers 7.12502
lthumb 9.99484 37.4297
rfemur -4.98448 -2.081 28.1465
rtibia 38.6641
rfoot -13.402 -1.25839
rtoes -1.81617
lfemur -35.8574 -2.89518 -17.3113
ltibia 73.4198
lfoot -0.704509 -6.2018
ltoes -3.68496
181
root 14.3962 17.4929 2.32578 209.381 84.0756 204.761
lowerback 9.79996 3.33874 -2.62771
upperback -0.472465 4.2051 0.907807
thorax -6.25208 2.16981 1.78648
lowerneck -19.5366 -6.52833 -10.3712
upperneck 12.3432 -7.58226 9.03321
head 7.75017 -3.27531 3.72394
rclavicle -3.73218e-014 3.37934e-015
rhumerus -32.9949 2.8251 -74.834
rradius 125.261
rwrist -19.8953
rhand -14.1637 29.1045
rfingers 7.12502
rthumb 11.9713 -0.533191
lclavicle -3.73218e-014 3.37934e-015
lhumerus -58.3561 -5.83067 89.2514
lradius 96.3154
lwrist 20.4648
lhand -13.847 8.1022
lfingers 7.12502
lthumb 12.2766 37.7218
rfemur -3.56039 -1.18858 28.5522
rtibia 37.8033
rfoot -10.8989 -1.25992
rtoes -3.61481
lfemur -36.13 -1.99439 -17.3312
ltibia 70.4773
lfoot -1.45979 -6.03726
ltoes -9.86125
182
root 14.7444 17.5841 2.29715 206.107 84.0335 201.399
lowerback 9.11972 3.37264 -2.85837
upperback -0.513703 4.25101 1.06458
thorax -5.94361 2.20148 2.10884
lowerneck -19.1945 -6.6062 -10.9582
upperneck 12.3769 -7.5428 8.88921
head 7.71586 -3.31009 3.78011
rclavicle -2.24425e-014 -1.15544e-015
rhumerus -33.2996 4.47811 -75.3629
rradius 125.13
rwrist -18.8591
rhand -14.3588 29.4034
rfingers 7.12502
rthumb 11.7831 -0.245165
lclavicle -2.24425e-014 -1.15544e-015
lhumerus -59.3319 -5.38675 89.9799
lradius 96.4348
lwrist 19.7699
lhand -13.9484 7.39039
lfingers 7.12502
lthumb 12.1788 37.0159
rfemur -2.36232 -1.63691 27.8542
rtibia 37.0299
rfoot -8.1246 -0.27715
rtoes -4.34513
lfemur -36.3623 -2.3522 -18.2077
ltibia 67.2057
lfoot -1.53537 -4.58955
ltoes -11.7304
183
root 15.0969 17.6858 2.26766 198.687 84.0296 193.994
lowerback 8.72073 3.18604 -2.76246
upperback -0.621076 3.98974 0.528659
thorax -5.76779 2.05983 1.55372
lowerneck -18.8248 -6.63717 -10.9243
upperneck 12.4308 -7.69295 9.20169
head 7.70058 -3.35945 3.86625
rclavicle -5.89148e-014 -1.07344e-014
rhumerus -33.8758 6.16572 -76.7625
rradius 125.137
rwrist -17.6951
rhand -14.8355 29.5001
rfingers 7.12502
rthumb 11.3234 -0.174181
lclavicle -5.89148e-014 -1.07344e-014
lhumerus -60.511 -5.02724 89.7612
lradius 96.9415
lwrist 19.7382
lhand -15.6655 6.77065
lfingers 7.12502
lthumb 10.5229 36.4872
rfemur -1.06009 -1.9299 26.6704
rtibia 36.1704
rfoot -4.98922 0.628921
rtoes -4.53564
lfemur -36.249 -3.14405 -19.3762
ltibia 63.6763
lfoot -1.60141 -4.14072
ltoes -20.7532
184
root 15.4593 17.7702 2.26162 194.744 84.0266 190.149
lowerback 8.36098 3.2581 -2.90342
upperback -0.758199 4.0638 0.237298
thorax -5.70092 2.09671 1.334
lowerneck -18.4003 -6.99656 -10.4661
upperneck 12.4007 -8.35549 9.2501
head 7.67194 -3.65698 3.72448
rclavicle -1.88348e-014 -3.8763e-015
rhumerus -34.7459 7.22845 -77.7767
rradius 125.291
rwrist -17.5196
rhand -14.0432 29.4208
rfingers 7.12502
rthumb 12.0874 -0.210114
lclavicle -1.88348e-014 -3.8763e-015
lhumerus -61.5825 -4.9925 89.9512
lradius 97.3616
lwrist 19.5053
lhand -16.2868 6.60783
lfingers 7.12502
lthumb 9.92343 36.3539
rfemur 0.307362 -1.4524 26.024
rtibia 35.2951
rfoot -1.67791 1.08334
rtoes -2.05654
lfemur -35.9846 -3.22409 -20.1271
ltibia 59.9865
lfoot -1.41708 -2.67228
ltoes -21.984
185
root 15.8243 17.84 2.26138 195.335 83.9061 190.843
lowerback 7.89147 3.31065 -3.01165
upperback -0.894629 4.14272 0.355841
thorax -5.59979 2.14196 1.52882
lowerneck -18.4718 -6.93516 -11.242
upperneck 13.0935 -8.16098 9.54372
head 7.94041 -3.5722 3.9768
rclavicle -3.03271e-014 -1.18277e-014
rhumerus -35.657 8.60146 -78.4519
rradius 125.348
rwrist -17.5189
rhand -13.189 29.3474
rfingers 7.12502
rthumb 12.911 -0.233207
lclavicle -3.03271e-014 -1.18277e-014
lhumerus -62.631 -4.67313 90.5727
lradius 97.599
lwrist 18.6092
lhand -16.6037 6.23366
lfingers 7.12502
lthumb 9.61772 35.9941
rfemur 1.7999 -0.38382 26.0018
rtibia 34.135
rfoot 1.94557 0.730624
rtoes 6.22275
lfemur -35.6625 -3.21385 -20.349
ltibia 56.2386
lfoot -1.19943 -1.6414
ltoes -22.1999
